<?xml version="1.0" standalone="no"?>
<!DOCTYPE svg PUBLIC "-//W3C//DTD SVG 20010904//EN"
 "http://www.w3.org/TR/2001/REC-SVG-20010904/DTD/svg10.dtd">
<svg version="1.0" xmlns="http://www.w3.org/2000/svg"
 width="512.000000pt" height="512.000000pt" viewBox="0 0 512.000000 512.000000"
 preserveAspectRatio="xMidYMid meet">

<g transform="translate(0.000000,512.000000) scale(0.100000,-0.100000)"
fill="#000000" stroke="none">
<path d="M694 4670 c-179 -47 -326 -166 -409 -331 -69 -137 -65 -6 -65 -1886
0 -1500 2 -1706 15 -1758 58 -222 239 -403 461 -459 91 -23 2135 -24 2233 -1
205 49 388 221 454 430 21 68 22 84 22 487 l0 416 -30 43 c-84 120 -266 120
-350 0 l-30 -43 -5 -386 -5 -387 -25 -45 c-14 -24 -45 -58 -68 -75 l-44 -30
-1016 -3 c-1136 -3 -1068 -7 -1136 68 -19 21 -40 56 -46 77 -8 27 -10 507 -8
1690 l3 1651 30 44 c17 23 51 54 75 68 l45 25 1020 0 c1125 0 1043 5 1109 -61
60 -61 61 -65 66 -371 l5 -281 30 -43 c84 -120 266 -120 350 0 l30 43 3 282
c4 323 -4 380 -65 505 -53 107 -178 233 -284 284 -141 69 -100 67 -1254 66
-983 0 -1044 -1 -1111 -19z"/>
<path d="M3739 3597 c-61 -32 -99 -89 -106 -159 -10 -102 -6 -107 285 -400
l266 -268 -1276 -2 -1276 -3 -43 -30 c-120 -84 -120 -266 0 -350 l43 -30 1276
-3 1276 -2 -266 -268 c-287 -288 -295 -299 -286 -392 11 -108 83 -180 187
-188 111 -8 95 -21 589 472 270 269 462 467 474 491 28 54 28 136 0 190 -30
58 -906 930 -954 950 -56 23 -136 19 -189 -8z"/>
</g>
</svg>
