<svg width="249" height="87" viewBox="0 0 249 87" fill="none" xmlns="http://www.w3.org/2000/svg">
<path d="M112.375 58.2619C110.628 58.2619 109.057 57.9626 107.66 57.3639C106.263 56.7403 105.166 55.8673 104.367 54.7448C103.569 53.6223 103.17 52.3127 103.17 50.8161H107.735C107.835 51.9386 108.271 52.8615 109.044 53.5849C109.843 54.3083 110.953 54.67 112.375 54.67C113.846 54.67 114.994 54.3207 115.817 53.6223C116.64 52.8989 117.052 51.976 117.052 50.8535C117.052 49.9805 116.79 49.2696 116.266 48.7208C115.767 48.172 115.131 47.748 114.358 47.4486C113.609 47.1493 112.562 46.825 111.215 46.4758C109.518 46.0268 108.134 45.5778 107.061 45.1288C106.014 44.6549 105.116 43.9315 104.367 42.9587C103.619 41.9859 103.245 40.6888 103.245 39.0674C103.245 37.5708 103.619 36.2612 104.367 35.1387C105.116 34.0162 106.163 33.1557 107.51 32.557C108.857 31.9584 110.416 31.659 112.187 31.659C114.707 31.659 116.765 32.2951 118.361 33.5673C119.982 34.8145 120.88 36.5356 121.055 38.7307H116.341C116.266 37.7828 115.817 36.9721 114.994 36.2986C114.17 35.6251 113.085 35.2884 111.738 35.2884C110.516 35.2884 109.518 35.6002 108.745 36.2238C107.972 36.8474 107.585 37.7454 107.585 38.9178C107.585 39.716 107.822 40.377 108.296 40.9008C108.795 41.3997 109.419 41.7988 110.167 42.0981C110.915 42.3975 111.938 42.7217 113.235 43.071C114.956 43.5449 116.353 44.0188 117.426 44.4928C118.523 44.9667 119.446 45.7026 120.194 46.7003C120.968 47.6731 121.354 48.9827 121.354 50.629C121.354 51.9511 120.993 53.1983 120.269 54.3706C119.571 55.543 118.536 56.4909 117.164 57.2143C115.817 57.9127 114.22 58.2619 112.375 58.2619ZM134.544 47.7106L144.048 58H138.286L130.653 49.1324V58H126.387V30.312H130.653V46.401L138.136 37.3837H144.048L134.544 47.7106ZM165.664 37.3837L153.017 67.6908H148.602L152.792 57.6633L144.673 37.3837H149.425L155.224 53.0985L161.248 37.3837H165.664ZM182.801 44.6424C184.198 44.8919 185.383 45.6277 186.356 46.85C187.329 48.0722 187.815 49.4566 187.815 51.0032C187.815 52.3252 187.466 53.5225 186.767 54.5951C186.094 55.6428 185.109 56.4784 183.812 57.102C182.514 57.7007 181.005 58 179.284 58H168.883V31.9958H178.798C180.569 31.9958 182.09 32.2951 183.363 32.8938C184.635 33.4924 185.595 34.3031 186.244 35.3258C186.892 36.3236 187.216 37.4461 187.216 38.6933C187.216 40.1899 186.817 41.4371 186.019 42.4349C185.221 43.4326 184.148 44.1685 182.801 44.6424ZM173.148 42.9213H178.424C179.821 42.9213 180.906 42.6095 181.679 41.9859C182.477 41.3373 182.876 40.4144 182.876 39.2171C182.876 38.0447 182.477 37.1343 181.679 36.4857C180.906 35.8122 179.821 35.4755 178.424 35.4755H173.148V42.9213ZM178.91 54.5203C180.357 54.5203 181.492 54.1711 182.315 53.4726C183.138 52.7742 183.55 51.8014 183.55 50.5542C183.55 49.282 183.113 48.2718 182.24 47.5235C181.367 46.7752 180.207 46.401 178.76 46.401H173.148V54.5203H178.91ZM211.009 37.3837L198.362 67.6908H193.947L198.138 57.6633L190.018 37.3837H194.77L200.57 53.0985L206.594 37.3837H211.009ZM219.204 40.8634V52.2753C219.204 53.0486 219.379 53.6098 219.728 53.9591C220.102 54.2833 220.726 54.4455 221.599 54.4455H224.218V58H220.85C218.93 58 217.458 57.551 216.435 56.653C215.413 55.755 214.901 54.2958 214.901 52.2753V40.8634H212.469V37.3837H214.901V32.2577H219.204V37.3837H224.218V40.8634H219.204ZM247.044 47.1867C247.044 47.96 246.994 48.6584 246.895 49.282H231.142C231.267 50.9283 231.878 52.2504 232.976 53.2481C234.073 54.2459 235.42 54.7448 237.017 54.7448C239.312 54.7448 240.933 53.7844 241.881 51.8638H246.483C245.859 53.7595 244.724 55.3185 243.078 56.5408C241.457 57.7381 239.436 58.3367 237.017 58.3367C235.046 58.3367 233.275 57.9002 231.704 57.0272C230.157 56.1292 228.935 54.882 228.037 53.2856C227.164 51.6642 226.727 49.7934 226.727 47.6731C226.727 45.5529 227.151 43.6946 227.999 42.0981C228.873 40.4768 230.082 39.2296 231.629 38.3565C233.2 37.4835 234.996 37.047 237.017 37.047C238.962 37.047 240.696 37.471 242.218 38.3191C243.739 39.1672 244.924 40.3645 245.772 41.9111C246.62 43.4326 247.044 45.1912 247.044 47.1867ZM242.592 45.8398C242.567 44.2683 242.006 43.0086 240.908 42.0607C239.811 41.1128 238.451 40.6389 236.83 40.6389C235.358 40.6389 234.098 41.1128 233.051 42.0607C232.003 42.9837 231.379 44.2433 231.18 45.8398H242.592Z" fill="white"/>
<path d="M47.0146 80.8828C46.2024 80.8828 45.5459 80.2752 45.5459 79.5234V53.698C45.5459 52.9463 46.2024 52.3387 47.0146 52.3387C47.8269 52.3387 48.4834 52.9463 48.4834 53.698V79.5234C48.4834 80.2752 47.8269 80.8828 47.0146 80.8828Z" fill="#4A89DC"/>
<path d="M38.1889 78.1776H26.4551C25.6429 78.1776 24.9863 77.57 24.9863 76.8183C24.9863 76.0665 25.6429 75.4589 26.4551 75.4589H38.1889C39.0011 75.4589 39.6577 76.0665 39.6577 76.8183C39.6577 77.57 39.0011 78.1776 38.1889 78.1776Z" fill="#4A89DC"/>
<path d="M38.189 78.1776C37.3767 78.1776 36.7202 77.57 36.7202 76.8183V53.6559C36.7202 52.9041 37.3767 52.2965 38.189 52.2965C39.0012 52.2965 39.6577 52.9041 39.6577 53.6559V76.8183C39.6577 77.57 39.0012 78.1776 38.189 78.1776Z" fill="#4A89DC"/>
<path d="M27.9062 67.2918H16.1636C15.3514 67.2918 14.6948 66.6841 14.6948 65.9324C14.6948 65.1807 15.3514 64.573 16.1636 64.573H27.9062C28.7184 64.573 29.375 65.1807 29.375 65.9324C29.375 66.6841 28.7184 67.2918 27.9062 67.2918Z" fill="#4A89DC"/>
<path d="M27.9062 67.2918C27.094 67.2918 26.4375 66.6841 26.4375 65.9324V53.6559C26.4375 52.9041 27.094 52.2965 27.9062 52.2965C28.7185 52.2965 29.375 52.9041 29.375 53.6559V65.9324C29.375 66.6841 28.7185 67.2918 27.9062 67.2918Z" fill="#4A89DC"/>
<path d="M67.5742 78.1776H55.8403C55.0281 78.1776 54.3716 77.57 54.3716 76.8183C54.3716 76.0665 55.0281 75.4589 55.8403 75.4589H67.5742C68.3864 75.4589 69.0429 76.0665 69.0429 76.8183C69.0429 77.57 68.3864 78.1776 67.5742 78.1776Z" fill="#4A89DC"/>
<path d="M55.8403 78.1776C55.0281 78.1776 54.3716 77.57 54.3716 76.8183V53.6559C54.3716 52.9041 55.0281 52.2965 55.8403 52.2965C56.6526 52.2965 57.3091 52.9041 57.3091 53.6559V76.8183C57.3091 77.57 56.6511 78.1776 55.8403 78.1776Z" fill="#4A89DC"/>
<path d="M77.8657 67.2918H66.123C65.3108 67.2918 64.6543 66.6841 64.6543 65.9324C64.6543 65.1807 65.3108 64.573 66.123 64.573H77.8657C78.6779 64.573 79.3345 65.1807 79.3345 65.9324C79.3345 66.6841 78.6765 67.2918 77.8657 67.2918Z" fill="#4A89DC"/>
<path d="M66.123 67.2918C65.3108 67.2918 64.6543 66.6841 64.6543 65.9324V53.6559C64.6543 52.9041 65.3108 52.2965 66.123 52.2965C66.9353 52.2965 67.5918 52.9041 67.5918 53.6559V65.9324C67.5918 66.6841 66.9338 67.2918 66.123 67.2918Z" fill="#4A89DC"/>
<path d="M69.7656 14.2734H69.7509C65.8441 6.25312 57.1197 0.679688 47 0.679688C34.1925 0.679688 23.6322 9.59583 22.2075 21.0975L22.0312 21.0703H20.5625C12.455 21.0703 5.875 27.159 5.875 34.6641C5.875 42.1678 12.455 48.2578 20.5625 48.2578H69.7656C79.9147 48.2578 88.125 40.6426 88.125 31.2656C88.125 21.8859 79.9147 14.2734 69.7656 14.2734Z" fill="#E6E9ED"/>
<path d="M13.2188 63.2109C14.8491 63.2109 16.1562 64.4317 16.1562 65.9297C16.1562 67.4372 14.8491 68.6484 13.2188 68.6484C11.6031 68.6484 10.2812 67.4372 10.2812 65.9297C10.2812 64.4317 11.6031 63.2109 13.2188 63.2109Z" fill="#5D9CEC"/>
<path d="M23.5146 74.0995C25.145 74.0995 26.4521 75.308 26.4521 76.8183C26.4521 78.3136 25.145 79.537 23.5146 79.537C21.899 79.537 20.5771 78.3136 20.5771 76.8183C20.5771 75.3066 21.899 74.0995 23.5146 74.0995Z" fill="#5D9CEC"/>
<path d="M47.0146 79.5234C48.6317 79.5234 49.9521 80.7319 49.9521 82.2422C49.9521 83.7375 48.6317 84.9609 47.0146 84.9609C45.399 84.9609 44.0771 83.7375 44.0771 82.2422C44.0771 80.7319 45.399 79.5234 47.0146 79.5234Z" fill="#5D9CEC"/>
<path d="M70.5146 74.0995C72.1317 74.0995 73.4521 75.308 73.4521 76.8183C73.4521 78.3136 72.1317 79.537 70.5146 79.537C68.8858 79.537 67.5771 78.3136 67.5771 76.8183C67.5771 75.3066 68.8843 74.0995 70.5146 74.0995Z" fill="#5D9CEC"/>
<path d="M80.7959 63.2109C82.4262 63.2109 83.7334 64.4317 83.7334 65.9297C83.7334 67.4372 82.4262 68.6484 80.7959 68.6484C79.1803 68.6484 77.8584 67.4372 77.8584 65.9297C77.8584 64.4317 79.1803 63.2109 80.7959 63.2109Z" fill="#5D9CEC"/>
<path d="M5.875 34.6641C5.875 42.1678 12.455 48.2578 20.5625 48.2578H69.7656C79.9147 48.2578 88.125 40.6426 88.125 31.2656V36.661C88.125 46.0407 79.9147 53.6532 69.7656 53.6532H66.1231H55.8419H38.1875H27.9062H20.5625C12.455 53.6532 5.875 47.5632 5.875 40.0594V34.6641Z" fill="#CCD1D9"/>
<path d="M47 7.47656C56.7378 7.47656 64.625 14.7886 64.625 23.7891C64.625 32.8004 56.7378 40.1016 47 40.1016C37.2769 40.1016 29.375 32.8004 29.375 23.7891C29.375 14.7886 37.2769 7.47656 47 7.47656Z" fill="#5D9CEC"/>
<path d="M13.2261 70.0105C10.7968 70.0105 8.81982 68.1808 8.81982 65.9324C8.81982 63.684 10.7968 61.8543 13.2261 61.8543C15.6554 61.8543 17.6323 63.684 17.6323 65.9324C17.6323 68.1808 15.6554 70.0105 13.2261 70.0105ZM13.2261 64.573C12.4153 64.573 11.7573 65.1834 11.7573 65.9324C11.7573 66.6841 12.4153 67.2918 13.2261 67.2918C14.0368 67.2918 14.6948 66.6841 14.6948 65.9324C14.6948 65.1834 14.0368 64.573 13.2261 64.573Z" fill="#5D9CEC"/>
<path d="M23.5176 80.8964C21.0883 80.8964 19.1113 79.0667 19.1113 76.8183C19.1113 74.5699 21.0883 72.7401 23.5176 72.7401C25.9469 72.7401 27.9238 74.5699 27.9238 76.8183C27.9238 79.0667 25.9469 80.8964 23.5176 80.8964ZM23.5176 75.4589C22.7068 75.4589 22.0488 76.0693 22.0488 76.8183C22.0488 77.57 22.7068 78.1776 23.5176 78.1776C24.3283 78.1776 24.9863 77.57 24.9863 76.8183C24.9863 76.0693 24.3269 75.4589 23.5176 75.4589Z" fill="#5D9CEC"/>
<path d="M47.0146 86.3203C44.5853 86.3203 42.6084 84.4906 42.6084 82.2422C42.6084 79.9938 44.5853 78.1641 47.0146 78.1641C49.444 78.1641 51.4209 79.9938 51.4209 82.2422C51.4209 84.4906 49.444 86.3203 47.0146 86.3203ZM47.0146 80.8828C46.2039 80.8828 45.5459 81.4932 45.5459 82.2422C45.5459 82.9939 46.2039 83.6016 47.0146 83.6016C47.8254 83.6016 48.4834 82.9939 48.4834 82.2422C48.4834 81.4932 47.8254 80.8828 47.0146 80.8828Z" fill="#5D9CEC"/>
<path d="M80.8032 70.0105C78.3739 70.0105 76.397 68.1808 76.397 65.9324C76.397 63.684 78.3739 61.8543 80.8032 61.8543C83.2325 61.8543 85.2095 63.684 85.2095 65.9324C85.2095 68.1808 83.2325 70.0105 80.8032 70.0105ZM80.8032 64.573C79.9925 64.573 79.3345 65.1834 79.3345 65.9324C79.3345 66.6841 79.9925 67.2918 80.8032 67.2918C81.614 67.2918 82.272 66.6841 82.272 65.9324C82.272 65.1834 81.6125 64.573 80.8032 64.573Z" fill="#5D9CEC"/>
<path d="M70.5117 80.8964C68.0824 80.8964 66.1055 79.0667 66.1055 76.8183C66.1055 74.5699 68.0824 72.7401 70.5117 72.7401C72.941 72.7401 74.918 74.5699 74.918 76.8183C74.918 79.0667 72.941 80.8964 70.5117 80.8964ZM70.5117 75.4589C69.701 75.4589 69.043 76.0693 69.043 76.8183C69.043 77.57 69.701 78.1776 70.5117 78.1776C71.3225 78.1776 71.9805 77.57 71.9805 76.8183C71.9805 76.0693 71.3225 75.4589 70.5117 75.4589Z" fill="#5D9CEC"/>
<path d="M47.0015 31.9453C46.1892 31.9453 45.5327 31.3377 45.5327 30.5859V16.9976C45.5327 16.2459 46.1892 15.6382 47.0015 15.6382C47.8137 15.6382 48.4702 16.2459 48.4702 16.9976V30.5859C48.4702 31.3377 47.8137 31.9453 47.0015 31.9453Z" fill="#4A89DC"/>
<path d="M54.3437 25.1512H39.6592C38.847 25.1512 38.1904 24.5435 38.1904 23.7918C38.1904 23.04 38.847 22.4324 39.6592 22.4324H54.3437C55.156 22.4324 55.8125 23.04 55.8125 23.7918C55.8125 24.5435 55.156 25.1512 54.3437 25.1512Z" fill="#4A89DC"/>
</svg>
